<?xml version="1.0" encoding="utf-8"?>
<!-- Generator: Adobe Illustrator 16.0.0, SVG Export Plug-In . SVG Version: 6.00 Build 0)  -->
<!DOCTYPE svg PUBLIC "-//W3C//DTD SVG 1.1//EN" "http://www.w3.org/Graphics/SVG/1.1/DTD/svg11.dtd">
<svg version="1.1" id="Layer_1" xmlns="http://www.w3.org/2000/svg" xmlns:xlink="http://www.w3.org/1999/xlink" x="0px" y="0px"
	 width="256px" height="162.5px" viewBox="0 0 256 162.5" enable-background="new 0 0 256 162.5" xml:space="preserve">
<g>
	<path fill="#222" d="M38.256,155.856V57.135H23.037c0,0,0.4-1.869-4.773-1.869c0,0,0.034-5.439-8.277-5.439
		c0,0-3.571-0.868-3.571-6.741h57.871c0,0,19.892-26.867,62.878-26.867c42.987,0,63.012,26.166,63.012,26.166h59.406
		c0,0-0.267,6.942-3.203,6.942c0,0-8.403-0.075-8.403,5.607c0,0-5.006-0.551-5.006,1.826h-15.419v99.097h-9.086V60.139
		c0,0,0.467-1.568,3.337-1.568v-1.902h-22.126c0,0-20.128-28.301-61.678-28.301c-41.549,0-62.377,28.567-62.377,28.567H43.196v1.603
		c0,0,4.271,0.133,4.271,2.202s0,95.117,0,95.117H38.256z"/>
	<path fill="#222" d="M50.07,60.673v10.88h6.208v77.476c0,0,3.203-1.581,6.207-1.581c3.004,0,0-74.293,0-74.293l-2.536-0.533
		v-1.034h23.195c0,0,14.552-21.46,44.855-21.46c30.305,0,44.723,21.326,44.723,21.326h21.226v1l-0.9,0.602v75.994h6.74v-77.83h6.275
		V60.673h-23.229l20.425-23.63l-4.005-4.672l-25.765,30.838l0.2-2.536c0,0-2.47-3.604-7.877-6.675l21.694-32.306l-5.608-3.871
		l-22.96,35.777l1.067-3.872l-7.209-4.005l16.02-33.908l-6.675-3.204l-16.287,37.913l-0.266-3.338l-7.21-2.002l8.144-35.91
		l-6.676-1.202l-7.342,40.717l-0.935-4.672l-7.476,0.133l-0.534,4.539l-7.609-40.717l-7.075,1.335l8.276,35.777l-7.476,2.002
		l0.401,3.473L93.256,8.876l-6.141,2.403l16.287,34.441l-7.876,4.139l1.202,4.006L74.166,18.22l-5.473,3.739l21.493,32.04
		l-8.543,6.941l1.201,2.805L56.679,31.97l-4.54,4.939l21.494,23.897L50.07,60.673z"/>
	<path fill="#222" d="M82.002,73.354c0,0-8.61-0.866,0,12.683c8.611,13.55,15.887,27.301,15.887,27.301s0.968,1.502,1.736,0
		c0.767-1.501,15.15-27.301,15.15-27.301s7.009-12.693-1.602-12.693v-0.855h25.565v1.401c0,0-8.21-1.937-18.289,15.085
		c-10.08,17.021-17.089,29.303-17.089,29.303s-2.002,7.81,0.334,6.941c2.336-0.867,34.576-20.225,50.261-23.362l11.948-29.903
		c0,0,1.401-4.404,3.271,0c1.868,4.406,10.68,26.099,10.68,26.099s26.232-0.267,46.858,18.156c0,0-24.364-13.817-44.122-11.48
		c0,0-0.834,0.434,0.234,2.002l16.252,39.515c0,0,2.604,8.479,11.549,9.879v0.535h-26.165v-0.802c0,0,7.208,1.001,1.335-8.477
		l-7.877-19.358h-26.7l-7.609,19.024c0,0-4.538,8.811,6.542,8.811v0.802h-28.369v-0.802c0,0,10.947,0.534,14.552-10.212
		l7.344-19.225c0,0,0.172-1.431-1.545-1.208c0,0-4.251,0.727-14.776,8.084c-18.479,12.916-23.663,14.176-23.663,14.176v3.045
		c0,0-0.428,4.744,11.214,5.34v1.135H79.199v-1.135c0,0,9.612,0.068,9.612-5.34c0,0-12.032,2.463-24.62-2.101
		c0,0,31.199,0.921,55.057-15.921c29.903-21.109,51.063-14.951,51.063-14.951s-11.479,0.286-16.887,3.604l-0.747,1.734h22.506
		c0,0,1.002-0.201,0.4-2.003l-6.007-15.218c0,0-25.799,4.338-50.73,20.659c-24.93,16.318-63.277,26.332-100.324-3.305
		c0,0,35.245,22.127,70.387,8.211l0.201-7.311c0,0-0.401-7.008-3.805-9.912L63.378,79.264c0,0-5.005-5.107-10.413-5.709v-0.8h28.736
		L82.002,73.354z M161.05,99.488c0,0,5.006-1.102,5.606-1.102c0.602,0-1.521-5.046-1.521-5.046s-1.181-3.146-1.672-1.73
		c-0.258,0.745-1.261,3.448-1.261,3.448l-1.152,3.328C161.05,98.387,160.592,99.587,161.05,99.488z"/>
</g>
</svg>
